<?xml version="1.0" encoding="UTF-8" standalone="no"?>
<!-- Generator: Adobe Illustrator 19.0.0, SVG Export Plug-In . SVG Version: 6.00 Build 0)  -->

<svg
   xmlns:dc="http://purl.org/dc/elements/1.1/"
   xmlns:cc="http://creativecommons.org/ns#"
   xmlns:rdf="http://www.w3.org/1999/02/22-rdf-syntax-ns#"
   xmlns:svg="http://www.w3.org/2000/svg"
   xmlns="http://www.w3.org/2000/svg"
   xmlns:sodipodi="http://sodipodi.sourceforge.net/DTD/sodipodi-0.dtd"
   xmlns:inkscape="http://www.inkscape.org/namespaces/inkscape"
   version="1.1"
   id="Capa_1"
   x="0px"
   y="0px"
   viewBox="0 0 512 512"
   style="enable-background:new 0 0 512 512;"
   xml:space="preserve"
   sodipodi:docname="002-ps4-1.svg"
   inkscape:version="0.92.3 (2405546, 2018-03-11)"><metadata
   id="metadata4794"><rdf:RDF><cc:Work
       rdf:about=""><dc:format>image/svg+xml</dc:format><dc:type
         rdf:resource="http://purl.org/dc/dcmitype/StillImage" /></cc:Work></rdf:RDF></metadata><defs
   id="defs4792" /><sodipodi:namedview
   pagecolor="#ffffff"
   bordercolor="#666666"
   borderopacity="1"
   objecttolerance="10"
   gridtolerance="10"
   guidetolerance="10"
   inkscape:pageopacity="0"
   inkscape:pageshadow="2"
   inkscape:window-width="640"
   inkscape:window-height="588"
   id="namedview4790"
   showgrid="false"
   inkscape:zoom="0.921875"
   inkscape:cx="254.25791"
   inkscape:cy="291.01194"
   inkscape:window-x="1643"
   inkscape:window-y="317"
   inkscape:window-maximized="0"
   inkscape:current-layer="Capa_1" />
<g
   id="g4745">
	<g
   id="g4743">
		<path
   d="M105.667,181H0v30h105.667c8.271,0,15,6.729,15,15s-6.729,15-15,15H45c-24.813,0-45,20.187-45,45v45h30v-45    c0-8.271,6.729-15,15-15h60.667c24.813,0,45-20.187,45-45S130.48,181,105.667,181z"
   id="path4741"
   style="fill:#45a29e" />
	</g>
</g>
<g
   id="g4751">
	<g
   id="g4749">
		<path
   d="M263.5,181c-24.813,0-45,20.187-45,45v60c0,8.271-6.729,15-15,15h-67.833v30H203.5c24.813,0,45-20.187,45-45v-60    c0-8.271,6.729-15,15-15h67.833v-30H263.5z"
   id="path4747"
   style="fill:#45a29e" />
	</g>
</g>
<g
   id="g4757">
	<g
   id="g4755">
		<path
   d="M482,270.998V211c0-16.542-13.458-30-30-30c-5.682,0-11.217,1.6-16.009,4.626l-94.999,60    C332.23,251.159,327,260.644,327,271c0,16.542,13.458,30,30,30h95v30h30v-30h30v-30L482,270.998z M452,270.997l-94.989-0.006    L452,211V270.997z"
   id="path4753"
   style="fill:#45a29e" />
	</g>
</g>
<g
   id="g4759">
</g>
<g
   id="g4761">
</g>
<g
   id="g4763">
</g>
<g
   id="g4765">
</g>
<g
   id="g4767">
</g>
<g
   id="g4769">
</g>
<g
   id="g4771">
</g>
<g
   id="g4773">
</g>
<g
   id="g4775">
</g>
<g
   id="g4777">
</g>
<g
   id="g4779">
</g>
<g
   id="g4781">
</g>
<g
   id="g4783">
</g>
<g
   id="g4785">
</g>
<g
   id="g4787">
</g>
</svg>