<?xml version="1.0" encoding="UTF-8" standalone="no"?>
<!-- Created with Inkscape (http://www.inkscape.org/) -->

<svg
   xmlns:dc="http://purl.org/dc/elements/1.1/"
   xmlns:cc="http://creativecommons.org/ns#"
   xmlns:rdf="http://www.w3.org/1999/02/22-rdf-syntax-ns#"
   xmlns:svg="http://www.w3.org/2000/svg"
   xmlns="http://www.w3.org/2000/svg"
   xmlns:sodipodi="http://sodipodi.sourceforge.net/DTD/sodipodi-0.dtd"
   xmlns:inkscape="http://www.inkscape.org/namespaces/inkscape"
   id="svg4136"
   version="1.1"
   inkscape:version="0.92.3 (2405546, 2018-03-11)"
   width="372.36823"
   height="372.57281"
   viewBox="0 0 372.36823 372.57281"
   sodipodi:docname="Xbox_Logo.svg">
  <title
     id="title4166">Xbox Logo</title>
  <metadata
     id="metadata4142">
    <rdf:RDF>
      <cc:Work
         rdf:about="">
        <dc:format>image/svg+xml</dc:format>
        <dc:type
           rdf:resource="http://purl.org/dc/dcmitype/StillImage" />
        <dc:title>Xbox Logo</dc:title>
      </cc:Work>
    </rdf:RDF>
  </metadata>
  <defs
     id="defs4140" />
  <sodipodi:namedview
     pagecolor="#ffffff"
     bordercolor="#666666"
     borderopacity="1"
     objecttolerance="10"
     gridtolerance="10"
     guidetolerance="10"
     inkscape:pageopacity="0"
     inkscape:pageshadow="2"
     inkscape:window-width="1161"
     inkscape:window-height="575"
     id="namedview4138"
     showgrid="false"
     inkscape:zoom="2.2378738"
     inkscape:cx="228.18742"
     inkscape:cy="52.028726"
     inkscape:window-x="1676"
     inkscape:window-y="267"
     inkscape:window-maximized="0"
     inkscape:current-layer="g4146"
     fit-margin-top="0"
     fit-margin-left="0"
     fit-margin-right="0"
     fit-margin-bottom="0" />
  <g
     id="g4146"
     transform="translate(-1.5706619,12.357467)"
     style="display:inline">
    <path
       style="fill:#45a29e"
       d="M 169.18811,359.44924 C 140.50497,356.70211 111.4651,346.40125 86.518706,330.1252 65.614374,316.48637 60.893704,310.87967 60.893704,299.69061 c 0,-22.47524 24.711915,-61.84014 66.992496,-106.71584 24.01246,-25.48631 57.46022,-55.36001 61.0775,-54.55105 7.0309,1.57238 63.25048,56.41053 84.29655,82.2252 33.28077,40.82148 48.58095,74.24535 40.808,89.14682 -5.9087,11.32753 -42.57224,33.4669 -69.50775,41.97242 -22.19984,7.01011 -51.35538,9.9813 -75.37239,7.68108 z M 32.660004,276.3228 C 15.288964,249.67326 6.5125436,223.43712 2.2752336,185.49086 c -1.39917002,-12.53 -0.89778,-19.69701 3.17715,-45.41515 5.0788204,-32.05404 23.3330104,-69.136381 45.2671304,-91.957616 9.34191,-9.719732 10.17624,-9.956543 21.56341,-6.120482 13.828357,4.658436 28.595936,14.857457 51.498366,35.56661 l 13.36254,12.082873 -7.2969,8.96431 C 95.97448,140.22403 60.217254,199.2085 46.741444,235.70071 c -7.32599,19.83862 -10.28084,39.75281 -7.12868,48.04363 2.12818,5.59752 0.17339,3.51093 -6.95276,-7.42154 z m 304.915426,4.53255 c 1.71605,-8.37719 -0.4544,-23.76257 -5.5413,-39.28002 -11.01667,-33.60598 -47.83964,-96.12421 -81.65282,-138.63054 L 239.73699,89.563875 251.25285,78.989784 c 15.03631,-13.806637 25.47602,-22.073835 36.74025,-29.094513 8.88881,-5.540156 21.59109,-10.444558 27.05113,-10.444558 3.36626,0 15.21723,12.298726 24.78421,25.720611 14.81725,20.787711 25.71782,45.986976 31.24045,72.219686 3.56833,16.9498 3.8657,53.23126 0.57486,70.13935 -2.70068,13.87582 -8.40314,31.87484 -13.9661,44.08195 -4.16823,9.14657 -14.53521,26.91044 -19.0783,32.69074 -2.33569,2.97175 -2.33761,2.96527 -1.02393,-3.4477 z M 172.25917,33.104812 c -15.60147,-7.922671 -39.6696,-16.427164 -52.96493,-18.715209 -4.66097,-0.802124 -12.61193,-1.249474 -17.6688,-0.994114 -10.969613,0.55394 -10.479662,-0.0197 7.11783,-8.3336652 14.63023,-6.912081 26.83386,-10.976696 43.40044,-14.455218 18.6362,-3.9130858 53.66559,-3.9590088 72.00507,-0.0944 19.80818,4.174105 43.13297,12.854085 56.27623,20.9423862 l 3.90633,2.403927 -8.96247,-0.452584 c -17.81002,-0.899366 -43.76575,6.295879 -71.63269,19.857459 -8.40538,4.090523 -15.71788,7.357511 -16.25,7.25997 -0.53211,-0.09754 -7.38426,-3.43589 -15.22701,-7.418555 z"
       id="path4148"
       inkscape:connector-curvature="0" />
    <path
       style="fill:#45a29e;stroke-width:0.44685271"
       d="M 174.72461,47.270026 C 160.97444,40.486669 152.5695,36.96813 140.09805,32.774387 122.33452,26.801092 117.26612,25.812288 103.4516,25.624962 98.044686,25.551644 93.445409,25.475323 93.230989,25.455361 c -1.111605,-0.103489 1.335896,-1.646141 7.121841,-4.488877 18.4079,-9.044115 31.23664,-13.6647935 47.74449,-17.1966929 11.33703,-2.4255891 17.3953,-2.99608975 34.5472,-3.25327141 27.81809,-0.4171141 40.73408,1.46192181 64.24681,9.34671161 11.22091,3.7628357 25.32411,10.0413737 31.94997,14.2236627 l 2.90454,1.833367 -6.25594,-0.296699 c -19.20766,-0.910958 -42.96793,5.404469 -71.9374,19.120803 -9.86457,4.67063 -17.08881,7.934027 -17.55399,7.929648 -0.1793,-0.0017 -5.25256,-2.433484 -11.2739,-5.403987 z"
       id="path24"
       inkscape:connector-curvature="0"
       transform="translate(1.5706619,-12.357467)" />
    <path
       style="fill:#45a29e;stroke-width:0.44685271"
       d="m 175.84174,372.18439 c -5.56525,-0.23536 -16.36659,-1.50152 -22.55889,-2.64441 -25.6026,-4.72538 -48.4661,-14.14143 -71.280177,-29.35587 -16.131011,-10.75758 -21.045856,-16.20999 -22.232118,-24.66379 -2.77179,-19.75289 19.195278,-57.69292 58.602625,-101.21446 22.62513,-24.98724 57.86123,-57.82261 67.18994,-62.61211 1.53123,-0.78615 1.79139,-0.8029 2.97379,-0.19146 8.5218,4.4068 55.57688,50.05654 77.17343,74.86859 21.37147,24.55346 38.91193,51.78838 45.25499,70.26702 4.51845,13.16317 4.28891,22.02214 -0.73243,28.26664 -9.30253,11.5686 -42.29835,30.79835 -66.43195,38.71612 -18.82328,6.17555 -45.35975,9.51949 -67.95921,8.56373 z"
       id="path3729"
       inkscape:connector-curvature="0"
       transform="translate(1.5706619,-12.357467)" />
    <path
       style="fill:#45a29e;stroke-width:0.44685271"
       d="m 37.449826,297.53492 c -0.374729,-0.43161 -2.285159,-3.19774 -4.245401,-6.14697 C 14.893861,263.83929 5.9303585,238.50273 1.3500248,201.34713 0.22887007,192.25234 0.14318182,181.90278 1.118795,173.41883 2.0298674,165.49613 4.1702981,151.52874 5.364424,145.71396 9.0239548,127.89393 18.231928,105.05569 28.605468,88.069964 l 1.637413,-2.681117 43.166448,-0.113931 43.166451,-0.113931 9.18947,8.293474 c 5.05421,4.561411 9.18947,8.436751 9.18947,8.611881 0,0.17512 -2.84391,3.83388 -6.3198,8.13058 -36.539011,45.16744 -73.104544,106.24401 -85.201545,142.31485 -5.8374,17.40595 -8.142877,33.95363 -5.914416,42.451 0.451176,1.72039 0.773491,3.17948 0.716256,3.24243 -0.05723,0.0629 -0.41066,-0.23868 -0.785389,-0.67028 z"
       id="path3731"
       inkscape:connector-curvature="0"
       transform="translate(1.5706619,-12.357467)" />
    <path
       style="fill:#45a29e;stroke-width:0.44685271"
       d="m 335.52144,297.44703 c 0,-0.26016 0.32461,-2.33313 0.72136,-4.60661 2.05704,-11.78735 -2.27661,-32.65809 -11.03911,-53.16411 -16.11227,-37.70593 -46.83465,-87.42829 -79.45515,-128.59343 l -7.25904,-9.16048 1.95822,-1.78741 c 1.07702,-0.983079 5.19375,-4.754402 9.1483,-8.380721 l 7.19008,-6.593307 43.25273,0.113943 43.25274,0.113942 2.83942,4.691954 c 8.54299,14.116749 16.61589,33.675409 21.11475,51.155929 3.71594,14.43842 4.66873,23.83915 4.66574,46.03454 -0.003,21.1873 -0.70297,28.12546 -4.23856,42.00415 -6.06509,23.80802 -14.17274,42.17685 -27.5599,62.44021 -3.66072,5.54102 -4.59158,6.70296 -4.59158,5.7314 z"
       id="path3733"
       inkscape:connector-curvature="0"
       transform="translate(1.5706619,-12.357467)" />
    <path
       style="fill:#45a29e;stroke-width:0.44685271"
       d="m 259.33305,83.035982 c 9.1468,-8.318719 24.70508,-19.536328 32.99301,-23.788148 7.54573,-3.871062 17.14347,-7.206914 20.73535,-7.206914 2.42502,0 6.73955,3.679993 14.14537,12.065023 4.84041,5.480406 9.82312,11.900848 13.61147,17.538969 l 2.32692,3.463109 -43.02319,-0.02002 -43.02319,-0.02003 z"
       id="path3735"
       inkscape:connector-curvature="0"
       transform="translate(1.5706619,-12.357467)" />
    <path
       style="fill:#45a29e;stroke-width:0.44685271"
       d="m 30.767882,84.846397 c 0,-0.42754 5.294003,-8.174711 8.218491,-12.026826 6.773001,-8.921349 15.570669,-18.091512 18.849195,-19.647275 2.476078,-1.174976 5.645168,-0.928658 11.16993,0.868186 9.195854,2.990809 19.757487,8.879691 30.308068,16.898969 4.145764,3.151112 16.803184,13.675502 16.803184,13.971512 0,0.108382 -19.203493,0.197058 -42.674433,0.197058 -23.470939,0 -42.674435,-0.117731 -42.674435,-0.261624 z"
       id="path3737"
       inkscape:connector-curvature="0"
       transform="translate(1.5706619,-12.357467)" />
    <path
       style="fill:#45a29e;stroke-width:0.44685271"
       d="M 10.669333,244.96216 C 7.2951485,234.42865 4.432723,221.53267 2.3467391,207.46671 0.61024197,195.75735 0.35686556,181.01008 1.7095081,170.37793 4.8666863,145.56162 8.5666156,130.85744 16.075608,113.2845 c 4.10874,-9.61549 12.91172,-26.574564 14.173893,-27.306214 0.162225,-0.09404 19.598993,-0.311604 43.192816,-0.483482 l 42.897863,-0.312504 6.03251,5.444957 c 8.46268,7.63843 12.11102,11.288073 11.88163,11.885863 -0.10846,0.28266 -3.35885,4.50772 -7.22307,9.38904 -16.13469,20.38142 -29.722565,39.62884 -43.202891,61.19746 -16.873266,26.99736 -30.845632,53.52182 -37.695348,71.55902 l -1.736121,4.57168 -16.177431,0.009 -16.17743,0.009 z"
       id="path3739"
       inkscape:connector-curvature="0"
       transform="translate(1.5706619,-12.357467)" />
    <path
       style="fill:#45a29e;stroke-width:0.44685271"
       d="m 176.87885,48.065957 c -17.12987,-8.32139 -24.51815,-11.387406 -39.08974,-16.221619 -15.79801,-5.241084 -22.761,-6.443241 -37.53563,-6.480506 -8.555567,-0.02158 -8.629765,0.182406 1.78741,-4.914005 24.10762,-11.7942063 44.75841,-17.7934644 66.27923,-19.2547651 10.22808,-0.6945044 37.96601,-0.28711409 45.04556,0.6615895 13.24304,1.7746527 28.28097,5.9014182 43.49915,11.9372086 6.44433,2.555929 18.57893,8.37099 21.94081,10.514326 l 2.04533,1.303983 -6.18063,-0.169736 c -20.29051,-0.55723 -42.02178,5.451393 -74.09842,20.487965 -4.30096,2.016164 -9.3325,4.321629 -11.18119,5.123256 l -3.36127,1.457509 z"
       id="path3741"
       inkscape:connector-curvature="0"
       transform="translate(1.5706619,-12.357467)" />
    <path
       style="fill:#45a29e;stroke-width:0.44685271"
       d="m 328.78038,248.01859 c -3.77154,-10.0099 -12.85384,-29.1805 -20.2127,-42.66421 -9.03954,-16.56327 -17.22759,-30.01459 -29.58696,-48.60546 -10.80906,-16.25889 -19.52644,-28.36923 -30.89893,-42.92531 -4.62564,-5.92054 -8.58621,-11.01282 -8.80126,-11.31617 -0.42296,-0.59664 0.25002,-1.27576 11.33889,-11.442381 l 6.47937,-5.940479 30.12458,0.287379 c 16.56851,0.158059 35.97309,0.289915 43.12128,0.293014 l 12.99671,0.0056 2.82935,4.798032 c 10.45145,17.723665 19.97898,43.040135 23.30065,61.914255 1.49316,8.48437 1.84448,13.38569 2.10374,29.34978 0.36892,22.71661 -0.48665,32.95372 -3.89231,46.57222 -1.49624,5.98316 -4.61915,16.56096 -5.67639,19.22685 l -0.66454,1.6757 h -16.04924 -16.04924 z"
       id="path3743"
       inkscape:connector-curvature="0"
       transform="translate(1.5706619,-12.357467)" />
    <path
       style="fill:#45a29e;stroke-width:0.44685271"
       d="m 258.49848,84.013705 c 0.52407,-0.424631 2.73599,-2.296548 4.91538,-4.159817 7.57703,-6.477962 19.35926,-14.91102 26.66875,-19.087992 6.70911,-3.833885 19.36018,-8.580511 22.86944,-8.580511 3.72722,0 16.52909,13.607065 27.22155,28.933713 l 2.57188,3.686535 -42.59992,-0.0099 c -40.43313,-0.0094 -42.55146,-0.04921 -41.64708,-0.781992 z"
       id="path3745"
       inkscape:connector-curvature="0"
       transform="translate(1.5706619,-12.357467)" />
    <path
       style="fill:#45a29e;stroke-width:0.44685271"
       d="m 90.199294,248.97941 c 0,-0.14742 2.198785,-3.1134 4.886188,-6.59108 14.766638,-19.109 33.600908,-39.69625 55.083448,-60.21025 19.41495,-18.53963 34.18683,-30.79139 37.12503,-30.79139 5.25024,0 61.15564,54.49412 83.7417,81.62772 2.49025,2.99164 6.36162,7.86792 8.60305,10.83618 l 4.07534,5.39685 h -96.75738 c -53.21656,0 -96.757376,-0.12062 -96.757376,-0.26803 z"
       id="path3747"
       inkscape:connector-curvature="0"
       transform="translate(1.5706619,-12.357467)" />
    <path
       style="fill:#45a29e;stroke-width:0.44685271"
       d="m 169.73908,371.56808 c -32.06351,-3.27941 -58.99269,-12.86551 -86.178977,-30.67751 -19.72439,-12.92309 -24.374559,-19.05109 -23.617073,-31.1226 0.791339,-12.611 9.349089,-31.18138 24.173851,-52.45742 2.361728,-3.38948 4.646162,-6.59379 5.076519,-7.12068 l 0.782468,-0.958 97.076272,0.24045 97.07627,0.24045 3.68902,5.29893 c 15.15598,21.77014 24.27356,40.73556 25.88419,53.84154 1.42388,11.58637 -2.72522,17.74566 -19.74154,29.30612 -7.58195,5.15099 -14.34132,9.10229 -23.90256,13.97263 -21.89019,11.15052 -38.75384,16.06492 -65.2405,19.01238 -5.7271,0.63732 -30.10983,0.93184 -35.07794,0.42371 z"
       id="path3749"
       inkscape:connector-curvature="0"
       transform="translate(1.5706619,-12.357467)" />
    <path
       style="fill:#45a29e;stroke-width:0.44685271"
       d="M 33.309238,291.06788 C 25.397719,279.09649 19.267142,267.58732 14.71896,256.16764 c -1.249622,-3.13758 -2.272039,-5.90248 -2.272039,-6.14423 0,-0.27991 5.778174,-0.43953 15.91108,-0.43953 12.575699,0 15.865986,0.11751 15.695967,0.56057 -1.948854,5.07863 -5.087854,16.98991 -6.387948,24.23975 -1.072211,5.97908 -1.326672,15.81348 -0.508736,19.66152 0.365683,1.72039 0.602023,3.19553 0.5252,3.2781 -0.07682,0.0826 -2.044784,-2.73261 -4.373246,-6.25594 z"
       id="path3751"
       inkscape:connector-curvature="0"
       transform="translate(1.5706619,-12.357467)" />
    <path
       style="fill:#45a29e;stroke-width:0.44685271"
       d="m 336.27892,294.26915 c 0.60319,-4.87134 0.3395,-15.91455 -0.49082,-20.55523 -0.95699,-5.34866 -3.53791,-15.46782 -5.19686,-20.37563 l -1.26907,-3.75441 h 16.02467 16.02467 l -1.71018,4.38832 c -2.90005,7.44153 -6.65981,15.4449 -10.4997,22.35063 -3.61388,6.49926 -10.50728,17.54173 -12.31903,19.73373 l -0.92334,1.11713 z"
       id="path3753"
       inkscape:connector-curvature="0"
       transform="translate(1.5706619,-12.357467)" />
  </g>
</svg>
